<svg id="Layer_1" data-name="Layer 1" xmlns="http://www.w3.org/2000/svg" viewBox="0 0 898 275"><defs><style>.cls-1{fill:#fecc53;}.cls-2{fill:#fed869;}.cls-3{fill:#f36c51;stroke:#f36c51;stroke-miterlimit:10;stroke-width:8px;}</style></defs><rect class="cls-1" width="898" height="275" rx="42.14"/><path class="cls-2" d="M46,14.69H676a0,0,0,0,1,0,0V260.85a0,0,0,0,1,0,0H46a30,30,0,0,1-30-30V44.65A30,30,0,0,1,46,14.69Z"/><path class="cls-3" d="M1244.59,462.15a2.56,2.56,0,0,1-1.8-4.36l19.87-19.88a1.28,1.28,0,0,0,0-1.82l-19.87-19.88a2.55,2.55,0,1,1,3.61-3.61l19.88,19.87a6.42,6.42,0,0,1,0,9.06L1246.4,461.4A2.54,2.54,0,0,1,1244.59,462.15Z" transform="translate(-473 -296.5)"/></svg>